<svg xmlns="http://www.w3.org/2000/svg" viewBox="0 0 640 360">
  <rect width="100%" height="100%" fill="#f8fafc"/>
  <rect x="140" y="40" width="360" height="280" rx="8" fill="#111827"/>
  <g fill="#16a34a">
    <rect x="160" y="60" width="24" height="24" rx="3"/>
    <rect x="190" y="60" width="24" height="24" rx="3"/>
    <rect x="220" y="60" width="24" height="24" rx="3"/>
    <rect x="250" y="60" width="24" height="24" rx="3"/>
    <rect x="280" y="60" width="24" height="24" rx="3"/>
    <rect x="310" y="60" width="24" height="24" rx="3"/>
    <rect x="340" y="60" width="24" height="24" rx="3"/>
    <rect x="370" y="60" width="24" height="24" rx="3"/>
    <!-- rows -->
    <g transform="translate(0,30)">
      <use href="#c"/>
    </g>
  </g>
  <!-- generate grid -->
  <g id="row" fill="#22c55e">
    <rect x="160" y="90" width="24" height="24" rx="3"/>
    <rect x="190" y="90" width="24" height="24" rx="3"/>
    <rect x="220" y="90" width="24" height="24" rx="3"/>
    <rect x="250" y="90" width="24" height="24" rx="3"/>
    <rect x="280" y="90" width="24" height="24" rx="3"/>
    <rect x="310" y="90" width="24" height="24" rx="3"/>
    <rect x="340" y="90" width="24" height="24" rx="3"/>
    <rect x="370" y="90" width="24" height="24" rx="3"/>
  </g>
  <g>
    <use href="#row"/>
    <use href="#row" transform="translate(0,30)"/>
    <use href="#row" transform="translate(0,60)"/>
    <use href="#row" transform="translate(0,90)"/>
    <use href="#row" transform="translate(0,120)"/>
    <use href="#row" transform="translate(0,150)"/>
    <use href="#row" transform="translate(0,180)"/>
  </g>
  <text x="320" y="330" font-size="24" text-anchor="middle" fill="#334155">WS2812B Matrix (ייצוג סכמטי)</text>
</svg>

